<?xml version="1.0" standalone="no"?>
<!DOCTYPE svg PUBLIC "-//W3C//DTD SVG 20010904//EN"
 "http://www.w3.org/TR/2001/REC-SVG-20010904/DTD/svg10.dtd">
<svg version="1.0" xmlns="http://www.w3.org/2000/svg"
 width="500.000000pt" height="500.000000pt" viewBox="0 0 500.000000 500.000000"
 preserveAspectRatio="xMidYMid meet">

<g transform="translate(0.000000,500.000000) scale(0.100000,-0.100000)"
fill="#000000" stroke="none">
<path d="M2352 3978 c-7 -7 -12 -37 -13 -67 -2 -91 -15 -179 -23 -156 -4 11
-22 63 -39 115 -27 81 -36 96 -55 98 -17 3 -25 -2 -29 -17 -3 -11 -10 -18 -15
-15 -11 7 -6 -40 18 -186 19 -110 22 -118 45 -130 28 -16 34 9 23 91 -11 80
-8 78 31 -14 45 -110 71 -79 75 88 3 110 14 110 49 2 17 -53 31 -104 31 -112
0 -8 9 -19 21 -25 25 -14 49 2 49 32 0 31 -68 240 -90 276 -21 34 -55 43 -78
20z m-105 -70 c-3 -8 -6 -5 -6 6 -1 11 2 17 5 13 3 -3 4 -12 1 -19z"/>
<path d="M2756 3954 c-80 -28 -131 -82 -147 -155 -32 -142 130 -241 232 -143
49 47 64 134 27 157 -26 17 -48 -9 -48 -55 0 -78 -85 -118 -129 -62 -30 38
-28 99 4 147 28 41 85 77 85 54 0 -7 -5 -18 -11 -24 -6 -6 -11 -42 -12 -79 -2
-56 1 -69 14 -72 14 -2 20 14 34 90 9 51 19 103 22 115 7 32 -23 44 -71 27z"/>
<path d="M1984 3906 c-49 -35 -56 -147 -14 -244 42 -97 111 -125 168 -69 23
23 27 35 26 80 -1 70 -37 159 -83 208 -40 42 -64 48 -97 25z m55 -68 c55 -86
88 -206 62 -223 -15 -9 -69 4 -55 13 11 8 14 53 3 46 -14 -8 -40 78 -33 109 5
22 3 28 -7 22 -9 -6 -11 -3 -6 9 4 10 7 24 7 32 0 21 13 17 29 -8z"/>
<path d="M2968 3895 c-10 -22 -6 -32 37 -95 l48 -70 -67 -63 c-53 -50 -67 -69
-64 -88 6 -42 39 -35 116 26 39 30 80 55 92 55 12 0 24 8 27 18 2 9 28 33 56
52 54 37 72 72 42 84 -9 3 -26 1 -38 -6 -20 -10 -21 -10 -8 5 19 24 7 21 -46
-10 l-46 -26 -21 29 c-32 45 -97 114 -107 114 -5 0 -15 -11 -21 -25z m12 -248
c0 -2 -10 -12 -22 -23 l-23 -19 19 23 c18 21 26 27 26 19z"/>
<path d="M1717 3772 c-24 -26 -47 -98 -47 -147 0 -95 87 -183 172 -172 83 11
140 94 119 174 -15 55 -48 95 -75 91 -29 -4 -31 -32 -5 -70 43 -60 19 -138
-43 -138 -63 0 -108 59 -108 142 0 48 12 74 29 64 6 -4 9 -11 7 -15 -7 -10 54
-101 76 -115 12 -7 21 -7 28 0 12 12 -99 197 -121 202 -9 1 -23 -6 -32 -16z"/>
<path d="M3277 3743 c-4 -3 -7 -17 -7 -30 0 -32 -26 -80 -50 -93 -11 -6 -20
-20 -20 -30 0 -29 -42 -90 -61 -90 -14 0 -29 -19 -29 -36 0 -2 17 -13 39 -23
21 -11 67 -43 102 -71 34 -27 66 -50 71 -50 4 0 8 -13 8 -30 0 -28 9 -36 35
-30 5 1 7 -2 3 -6 -4 -4 22 -24 58 -45 36 -22 79 -50 96 -64 16 -14 34 -25 38
-25 17 0 50 44 50 67 0 23 -41 54 -151 116 -36 20 -30 34 16 39 20 2 29 -1 28
-9 -2 -7 11 -19 27 -28 16 -8 45 -29 65 -46 40 -36 69 -35 73 2 4 31 -45 78
-114 112 -24 11 -44 24 -44 28 0 25 32 14 112 -40 71 -49 93 -59 104 -50 20
16 18 26 -11 51 -13 11 -22 25 -19 29 2 4 -1 11 -7 15 -8 4 -9 3 -5 -4 13 -21
-8 -12 -44 19 -35 31 -22 30 14 0 11 -9 16 -11 12 -4 -3 7 -21 22 -38 35 -17
12 -28 16 -23 9 5 -9 3 -12 -6 -9 -8 3 -13 10 -12 15 1 5 -3 10 -10 11 -7 1
-25 4 -40 8 -26 6 -36 -1 -101 -65 l-73 -73 -6 46 c-4 25 -10 58 -13 73 l-7
28 26 -23 c14 -13 33 -22 44 -20 30 6 24 117 -12 196 -36 80 -90 124 -118 95z
m73 -125 c11 -24 20 -51 20 -61 0 -16 -5 -14 -37 10 -21 15 -39 28 -41 29 -5
3 28 64 34 64 3 0 14 -19 24 -42z m-45 -208 l8 -35 -49 45 c-51 47 -52 50 -27
89 l16 25 22 -45 c12 -24 26 -60 30 -79z"/>
<path d="M1480 3621 c-36 -10 -36 -39 -1 -116 24 -52 28 -71 20 -86 -14 -27 6
-61 34 -57 15 2 29 -6 45 -29 12 -18 22 -33 22 -35 0 -2 -12 -4 -27 -3 -22 0
-34 -10 -61 -52 l-34 -52 -57 36 c-111 72 -151 92 -171 88 -30 -6 -40 -14 -40
-35 0 -21 66 -64 82 -54 6 4 8 3 5 -2 -3 -6 31 -32 75 -58 l81 -49 -69 -32
c-38 -18 -70 -31 -72 -30 -1 1 5 16 15 33 14 25 15 32 4 46 -7 9 -21 16 -30
16 -28 0 -136 -56 -176 -91 -74 -65 -80 -137 -11 -124 34 7 79 -7 103 -30 8
-9 23 -13 33 -10 25 8 100 -24 100 -42 0 -9 8 -13 21 -11 17 2 27 18 44 68 12
36 31 84 43 107 12 23 22 49 22 58 0 9 4 14 9 10 5 -3 16 1 24 9 8 8 17 13 20
10 2 -3 7 2 11 11 3 9 2 13 -4 10 -20 -12 -9 12 33 75 28 44 49 66 65 68 29 4
39 28 23 54 -9 15 -9 18 -1 13 7 -4 2 11 -11 33 -13 22 -27 38 -30 36 -4 -2
-5 5 -2 15 8 32 31 32 82 1 45 -28 101 -40 101 -22 0 13 -22 37 -63 67 -20 15
-43 39 -50 54 -8 17 -22 27 -41 29 -16 2 -51 21 -78 43 -27 21 -53 39 -56 38
-4 -1 -18 -4 -32 -8z m96 -112 c3 -6 2 -15 -4 -21 -7 -7 -15 0 -27 22 -16 31
-16 31 4 21 11 -6 23 -16 27 -22z m-306 -266 c0 -7 -39 17 -46 28 -3 6 5 3 20
-6 14 -10 26 -19 26 -22z m-25 -190 c-4 -10 -12 -30 -17 -45 -8 -24 -14 -27
-36 -22 -46 11 -46 21 -2 53 49 35 65 39 55 14z m148 -61 c-25 -50 -27 -53
-57 -46 -42 9 -43 10 -15 40 21 22 90 66 96 60 1 -1 -10 -25 -24 -54z"/>
<path d="M2452 3353 c-32 -27 -33 -67 -3 -102 11 -13 18 -28 16 -34 -2 -7 -9
-31 -15 -54 -7 -27 -17 -44 -30 -48 -32 -10 -48 -62 -49 -154 0 -77 -2 -86
-33 -131 -29 -42 -36 -47 -53 -37 -26 13 -35 24 -103 129 -94 143 -122 198
-122 237 0 44 -14 61 -51 61 -35 0 -51 -21 -47 -62 2 -23 10 -36 28 -45 20
-10 29 -28 46 -95 23 -86 22 -107 -2 -87 -11 9 -14 7 -14 -14 0 -14 5 -37 11
-51 13 -28 5 -104 -14 -130 -12 -16 -16 -16 -57 3 -63 28 -73 39 -101 99 -25
54 -50 72 -74 52 -21 -17 -89 26 -101 63 -18 59 -75 62 -82 4 -2 -19 3 -29 23
-39 14 -8 94 -93 176 -189 146 -170 149 -174 130 -190 -20 -17 -20 -17 15 -84
31 -59 34 -71 24 -91 -8 -15 -10 -32 -4 -51 4 -15 8 -137 9 -270 0 -181 4
-246 13 -255 26 -26 32 19 32 244 0 151 4 236 12 253 11 25 28 34 28 15 0 -15
26 -12 41 6 29 35 34 -16 35 -348 1 -252 4 -331 14 -343 31 -38 35 2 33 345
-2 276 0 340 12 350 23 19 28 -38 28 -307 0 -195 3 -255 13 -264 28 -23 34 27
33 301 0 236 2 275 16 289 12 12 19 13 33 5 14 -9 17 -29 19 -115 3 -122 8
-149 27 -149 14 0 24 89 24 213 1 49 14 77 38 77 32 0 38 -43 40 -304 2 -154
6 -262 12 -268 28 -28 32 9 32 272 0 186 3 271 11 276 19 11 29 -18 29 -82 0
-39 5 -66 13 -73 21 -17 27 -3 27 68 0 72 3 79 39 99 20 12 25 12 32 0 7 -11
12 -295 14 -825 0 -66 3 -124 7 -128 4 -4 14 -5 22 -2 12 5 14 68 14 452 0
246 3 450 8 455 5 5 18 10 29 12 18 3 20 -3 23 -75 2 -68 5 -78 20 -75 14 3
18 18 22 82 3 51 10 81 17 84 19 6 22 -12 25 -130 2 -59 7 -110 10 -114 4 -3
14 -4 23 -1 12 5 15 26 15 114 0 70 3 104 10 97 5 -5 11 -100 12 -219 3 -179
5 -210 18 -210 13 0 15 32 18 218 1 145 6 217 13 217 6 0 9 -18 7 -45 -2 -26
1 -43 7 -42 6 1 10 16 10 32 0 19 10 41 28 59 32 34 33 42 7 56 -19 10 -19 11
5 47 14 19 25 43 25 52 0 10 4 21 10 27 11 11 2 54 -11 54 -21 0 -4 26 89 133
53 62 121 143 151 180 30 37 60 67 67 67 19 0 36 28 29 49 -13 42 -70 37 -80
-7 -6 -29 -69 -87 -84 -78 -5 3 -34 -19 -65 -49 l-56 -56 -10 26 c-5 14 -14
25 -18 25 -5 0 -30 -22 -56 -50 l-47 -50 -10 28 c-13 34 -13 129 0 179 5 21
12 66 16 101 6 56 10 64 36 77 41 22 53 49 37 83 -27 57 -129 27 -114 -34 7
-27 -19 -85 -54 -121 -22 -25 -54 -30 -66 -12 -4 7 -15 1 -30 -17 -44 -52 -54
-80 -48 -126 5 -40 3 -46 -30 -77 -31 -30 -37 -33 -52 -20 -33 27 -74 101 -65
117 6 11 0 32 -19 66 -16 28 -33 76 -39 106 -6 30 -15 77 -21 104 -9 43 -7 53
12 88 21 36 21 41 7 66 -18 34 -66 41 -97 15z m56 -515 c18 -18 15 -48 -5 -55
-10 -4 -22 -13 -26 -20 -11 -18 -27 -7 -21 15 24 74 31 81 52 60z m-309 -113
c-13 -13 -46 23 -54 60 l-6 30 35 -40 c23 -26 32 -43 25 -50z m661 61 c0 -21
-44 -70 -59 -65 -8 3 -3 17 16 41 30 40 43 47 43 24z m-165 -137 c166 -27 318
-69 303 -84 -2 -3 -38 2 -79 11 -128 27 -280 44 -395 44 -123 0 -352 -22 -454
-44 -36 -8 -67 -12 -69 -10 -7 7 65 33 140 50 226 52 384 61 554 33z m130
-219 c96 -21 135 -33 135 -41 0 -8 -37 -5 -125 12 -66 12 -541 13 -680 0 -60
-5 -112 -8 -113 -6 -7 6 76 26 171 40 108 17 530 13 612 -5z"/>
<path d="M1592 3208 c-36 -55 -44 -68 -39 -68 2 0 17 19 33 42 41 61 46 68 40
68 -3 0 -18 -19 -34 -42z"/>
<path d="M3773 3204 c-27 -15 -44 -20 -48 -13 -9 14 -35 -8 -35 -30 0 -9 -35
-39 -80 -69 -44 -28 -80 -58 -80 -66 0 -18 23 -27 41 -15 8 5 21 6 30 4 8 -3
24 2 35 11 10 8 13 13 7 9 -7 -3 -13 -4 -13 -1 0 10 77 45 84 39 16 -17 1 -48
-54 -110 -58 -66 -72 -101 -42 -111 13 -4 86 65 114 108 l15 25 19 -39 c22
-46 35 -53 57 -31 35 34 55 266 27 300 -16 20 -27 18 -77 -11z m37 -124 c0
-33 -4 -60 -10 -60 -5 0 -10 18 -10 39 0 22 -6 42 -12 45 -9 3 -7 9 6 20 11 9
21 16 23 16 2 0 3 -27 3 -60z"/>
<path d="M3114 3095 c-7 -29 -1 -41 15 -30 14 8 14 55 1 55 -5 0 -12 -11 -16
-25z"/>
<path d="M1103 2375 c0 -27 2 -38 4 -22 2 15 2 37 0 50 -2 12 -4 0 -4 -28z"/>
<path d="M3893 2345 c0 -22 2 -30 4 -17 2 12 2 30 0 40 -3 9 -5 -1 -4 -23z"/>
<path d="M1112 2285 c0 -16 2 -22 5 -12 2 9 2 23 0 30 -3 6 -5 -1 -5 -18z"/>
<path d="M3882 2270 c0 -19 2 -27 5 -17 2 9 2 25 0 35 -3 9 -5 1 -5 -18z"/>
<path d="M1120 2235 c0 -34 49 -206 85 -294 72 -177 217 -381 360 -507 87 -77
185 -142 316 -209 215 -110 405 -151 669 -142 94 3 195 13 235 22 434 98 782
368 973 756 58 117 103 248 116 335 4 22 -5 0 -18 -47 -73 -257 -201 -475
-377 -645 -192 -184 -441 -319 -679 -368 -390 -79 -770 -4 -1094 217 -265 182
-476 480 -555 787 -17 63 -30 106 -31 95z"/>
<path d="M2540 1943 c0 -18 5 -33 10 -33 13 0 13 30 0 50 -7 11 -10 7 -10 -17z"/>
<path d="M2930 1751 c0 -16 5 -33 10 -36 6 -4 10 6 10 24 0 16 -4 33 -10 36
-6 4 -10 -6 -10 -24z"/>
<path d="M2440 1710 c0 -11 5 -20 10 -20 6 0 10 9 10 20 0 11 -4 20 -10 20 -5
0 -10 -9 -10 -20z"/>
<path d="M2200 1501 c0 -23 5 -41 10 -41 6 0 10 15 10 34 0 19 -4 38 -10 41
-6 4 -10 -10 -10 -34z"/>
</g>
</svg>
